<svg xmlns="http://www.w3.org/2000/svg" width="552.755" height="218.002" viewBox="0 0 552.755 218.002">
  <g id="Gruppe_40" data-name="Gruppe 40" transform="translate(0 0.663)">
    <g id="Gruppe_39" data-name="Gruppe 39">
      <path id="Pfad_118" data-name="Pfad 118" d="M0-4843.02l67.7,45.358,55.218-26.943h69.723l56.564,26.943L341.2-4843.02l94.616,18.415,80.623-43.613v-87.019l36.32-60.427H0Z" transform="translate(0 5015)" fill="#93e5ab"/>
    </g>
    <g id="Logo_v3" data-name="Logo v3" transform="translate(41 15.742)">
      <path id="Differenzmenge_1" data-name="Differenzmenge 1" d="M52.925-1091.854l-4.688-7.952-16.393,4.037,13.871-35.159,36.474-8.983,15.069,17.451-4.577,4.013L79.665-1133.52l-2.862,7.255,6.2,6.514a20.53,20.53,0,0,0-6.117-.915,22.958,22.958,0,0,0-8.775,1.77,25.273,25.273,0,0,0-8,5.281,25.407,25.407,0,0,0-6.511,10.408,22.281,22.281,0,0,0-.674,11.351Z" transform="translate(-679.729 660.583) rotate(53)" fill="#0d0630"/>
      <text id="studomo" transform="translate(0 76.258)" fill="#0d0630" font-size="62" font-family="Arial-BoldMT, Arial" font-weight="700"><tspan x="0" y="0">studomo</tspan></text>
    </g>
    <text id="students_of_tomorrow" data-name="students of tomorrow" transform="translate(91 139)" fill="#0d0630" font-size="35" font-family="ArialMT, Arial"><tspan x="0" y="0">students of tomorrow</tspan></text>
  </g>
</svg>
