<?xml version="1.0" encoding="utf-8"?>
<!-- Generator: Adobe Illustrator 13.0.0, SVG Export Plug-In . SVG Version: 6.00 Build 14948)  -->
<!DOCTYPE svg PUBLIC "-//W3C//DTD SVG 1.1//EN" "http://www.w3.org/Graphics/SVG/1.1/DTD/svg11.dtd">
<svg version="1.1" id="Layer_1" xmlns="http://www.w3.org/2000/svg" xmlns:xlink="http://www.w3.org/1999/xlink" x="0px" y="0px"
	 width="432px" height="574px" viewBox="0 0 432 574" enable-background="new 0 0 432 574" xml:space="preserve">
<g>
	<g>
		<path fill="#CC0001" d="M217.074,360.93c-71.239,0-129.052-57.721-129.052-128.972c0-71.38,57.813-129.059,129.052-129.059
			c71.301,0,129.042,57.679,129.042,129.059C346.116,303.209,288.375,360.93,217.074,360.93 M217.074,38.459
			c-106.796,0-193.399,86.625-193.399,193.499c0,106.792,86.603,193.39,193.399,193.39c106.842,0,193.581-86.598,193.581-193.39
			C410.655,125.084,323.916,38.459,217.074,38.459z">
			<animateTransform attributeName="transform" type="scale" from="10" to="1" dur="2s" repeatCount="indefinite"/>
			</path>
		<path fill="#CC0001" d="M217.074,165.651c-36.607,0-66.268,29.589-66.268,66.307c0,36.597,29.66,66.274,66.268,66.274
			c36.642,0,66.367-29.678,66.367-66.274C283.441,195.241,253.716,165.651,217.074,165.651">
			<animateTransform attributeName="transform" type="scale" from="0" to="1" dur="2s" repeatCount="indefinite"/>
			</path>

	</g>
</g>
</svg>
